<?xml version="1.0" standalone="no"?>
<!DOCTYPE svg PUBLIC "-//W3C//DTD SVG 20010904//EN"
 "http://www.w3.org/TR/2001/REC-SVG-20010904/DTD/svg10.dtd">
<svg version="1.0" xmlns="http://www.w3.org/2000/svg"
 width="500.000000pt" height="500.000000pt" viewBox="0 0 500.000000 500.000000"
 preserveAspectRatio="xMidYMid meet">

<g transform="translate(0.000000,500.000000) scale(0.100000,-0.100000)"
fill="#000000" stroke="none">
<path d="M870 2660 l0 -1540 1540 0 1540 0 0 1540 0 1540 -1540 0 -1540 0 0
-1540z m1510 1425 l0 -75 -737 2 -738 3 -3 73 -3 72 741 0 740 0 0 -75z m200
-660 l0 -735 -75 0 -75 0 0 735 0 735 75 0 75 0 0 -735z m230 0 l0 -735 -95 0
-95 0 0 735 0 735 95 0 95 0 0 -735z m230 0 l0 -735 -95 0 -95 0 0 735 0 735
95 0 95 0 0 -735z m220 0 l0 -735 -90 0 -90 0 0 735 0 735 90 0 90 0 0 -735z
m230 0 l0 -735 -95 0 -95 0 0 735 0 735 95 0 95 0 0 -735z m230 0 l0 -735 -95
0 -95 0 0 735 0 735 95 0 95 0 0 -735z m190 0 l0 -735 -75 0 -75 0 0 735 0
735 75 0 75 0 0 -735z m-1530 455 l0 -90 -740 0 -740 0 0 90 0 90 740 0 740 0
0 -90z m0 -230 l0 -90 -740 0 -740 0 0 90 0 90 740 0 740 0 0 -90z m0 -225 l0
-95 -740 0 -740 0 0 88 c0 49 3 92 7 95 3 4 336 7 740 7 l733 0 0 -95z m0
-230 l0 -95 -740 0 -740 0 0 95 0 95 740 0 740 0 0 -95z m0 -230 l0 -95 -737
2 -738 3 -3 93 -3 92 741 0 740 0 0 -95z m0 -205 l0 -70 -740 0 -740 0 0 70 0
70 740 0 740 0 0 -70z m-1330 -865 l0 -735 -75 0 -75 0 0 735 0 735 75 0 75 0
0 -735z m230 0 l0 -735 -95 0 -95 0 0 735 0 735 95 0 95 0 0 -735z m230 0 l0
-735 -95 0 -95 0 0 735 0 735 95 0 95 0 0 -735z m230 0 l0 -735 -95 0 -95 0 0
735 0 735 95 0 95 0 0 -735z m220 0 l0 -735 -90 0 -90 0 0 735 0 735 90 0 90
0 0 -735z m230 0 l0 -735 -95 0 -95 0 0 735 0 735 95 0 95 0 0 -735z m190 0
l0 -735 -75 0 -75 0 0 735 0 735 75 0 75 0 0 -735z m1530 665 l0 -70 -740 0
-740 0 0 70 0 70 740 0 740 0 0 -70z m0 -210 l0 -90 -740 0 -740 0 0 90 0 90
740 0 740 0 0 -90z m0 -225 l0 -95 -740 0 -740 0 0 95 0 95 740 0 740 0 0 -95z
m0 -230 l0 -95 -740 0 -740 0 0 95 0 95 740 0 740 0 0 -95z m0 -230 l0 -95
-740 0 -740 0 0 95 0 95 740 0 740 0 0 -95z m0 -225 l0 -90 -740 0 -740 0 0
90 0 90 740 0 740 0 0 -90z m0 -210 l0 -70 -740 0 -740 0 0 70 0 70 740 0 740
0 0 -70z"/>
</g>
</svg>
